# xmcd
#
# Track frame offsets:
# 150
# 9256
# 21242
# 30393
# 40459
# 50376
# 62041
# 71635
# 82016
# 91761
# 104198
# 113927
#
# Disc length: 1691 seconds
#
#
# Revision: 0
# Processed by: cddbd v1.4PL0 Copyright (c) Steve Scherf et al.
# Submitted via: FreeRIP 2.00 
#
DISCID=9b06990c
DTITLE=Jim Reeves - Girls I Have Known
DYEAR=1958
DGENRE=Country
TTITLE0=Marie
TTITLE1=Mona Lisa
TTITLE2=Juanita
TTITLE3=Charmaine
TTITLE4=Margie
TTITLE5=Anna Marie
TTITLE6=Sweet Sue, Just You
TTITLE7=Linda
TTITLE8=Ramona
TTITLE9=Maria Elena
TTITLE10=My Mary
TTITLE11=Goodnight Irene
EXTD=
EXTT0=
EXTT1=
EXTT2=
EXTT3=
EXTT4=
EXTT5=
EXTT6=
EXTT7=
EXTT8=
EXTT9=
EXTT10=
EXTT11=
PLAYORDER=
